<?xml version="1.0" standalone="no"?>
<!DOCTYPE svg PUBLIC "-//W3C//DTD SVG 20010904//EN"
 "http://www.w3.org/TR/2001/REC-SVG-20010904/DTD/svg10.dtd">
<svg version="1.0" xmlns="http://www.w3.org/2000/svg"
 width="1335.000000pt" height="1335.000000pt" viewBox="0 0 1335.000000 1335.000000"
 preserveAspectRatio="xMidYMid meet">
<metadata>
Created by potrace 1.11, written by Peter Selinger 2001-2013
</metadata>
<g transform="translate(0.000000,1335.000000) scale(0.100000,-0.100000)"
fill="#000000" stroke="none">
<path d="M6507 13334 c-1 -1 -72 -5 -157 -8 -85 -4 -171 -9 -190 -10 -19 -2
-69 -7 -110 -10 -67 -6 -237 -27 -345 -42 -233 -32 -636 -122 -899 -199 -245
-72 -615 -207 -791 -289 -38 -18 -95 -43 -125 -57 -149 -65 -555 -284 -695
-374 -27 -18 -90 -58 -140 -90 -509 -326 -1067 -819 -1465 -1294 -25 -29 -50
-59 -55 -65 -6 -6 -51 -63 -100 -126 -49 -63 -93 -119 -98 -125 -4 -5 -30 -41
-57 -80 -27 -38 -55 -77 -62 -85 -7 -8 -17 -22 -23 -31 -5 -10 -53 -83 -105
-163 -52 -80 -109 -169 -126 -198 -111 -189 -150 -260 -220 -398 -92 -180
-187 -386 -239 -520 -21 -52 -44 -110 -52 -128 -43 -96 -210 -619 -228 -712
-2 -8 -8 -35 -15 -60 -7 -25 -14 -54 -16 -65 -8 -44 -13 -62 -28 -120 -8 -33
-19 -87 -25 -120 -5 -33 -19 -109 -30 -170 -10 -60 -22 -132 -26 -160 -3 -27
-8 -61 -10 -75 -3 -24 -13 -95 -20 -150 -2 -14 -6 -63 -10 -110 -4 -47 -9
-101 -11 -120 -23 -254 -22 -761 1 -1025 2 -27 7 -81 10 -120 3 -38 8 -83 10
-100 2 -16 7 -52 10 -80 35 -303 114 -688 205 -1005 36 -126 109 -356 127
-400 3 -8 7 -19 9 -25 8 -34 124 -318 189 -466 111 -249 278 -565 413 -779
195 -309 422 -620 606 -830 27 -30 78 -89 114 -130 104 -118 436 -446 557
-550 61 -51 121 -104 135 -117 14 -12 66 -54 115 -93 50 -39 98 -78 109 -86
88 -74 429 -305 596 -406 317 -190 695 -380 965 -483 39 -15 88 -35 110 -45
46 -19 402 -140 485 -164 109 -31 275 -77 295 -80 11 -2 70 -16 130 -30 105
-24 127 -29 204 -42 18 -3 43 -8 55 -10 11 -2 46 -8 76 -14 30 -6 66 -12 80
-15 14 -3 45 -8 70 -10 25 -3 61 -7 80 -10 19 -2 60 -7 90 -11 30 -3 57 -8 60
-9 3 -2 51 -7 105 -10 55 -4 109 -9 120 -11 80 -16 601 -22 835 -10 198 10
371 22 420 31 48 7 95 14 155 20 33 4 71 8 85 11 240 40 302 52 515 99 11 3
29 7 40 9 86 18 489 132 515 146 8 4 17 8 20 8 6 1 3 0 153 51 65 22 133 47
150 55 18 7 48 19 67 27 197 73 624 277 820 392 47 27 105 61 130 75 25 13 61
34 80 47 178 115 333 216 343 225 6 5 84 63 172 129 129 96 322 250 381 306 6
5 40 35 75 65 150 127 489 479 670 694 13 16 29 34 34 40 6 6 35 43 65 81 30
39 57 72 61 75 14 11 243 336 305 432 36 57 78 121 94 143 15 22 47 75 71 118
24 43 49 86 54 95 62 104 206 383 257 497 77 170 93 209 138 320 74 186 148
397 200 575 12 41 28 95 36 120 21 71 90 364 112 480 31 162 51 271 56 315 25
186 36 281 42 345 3 41 8 91 9 110 19 188 24 658 11 875 -12 193 -23 321 -37
425 -5 41 -11 91 -14 110 -7 59 -16 121 -31 205 -7 44 -16 93 -18 109 -69 408
-275 1082 -441 1441 -13 28 -42 92 -65 144 -59 130 -186 375 -259 499 -34 57
-61 105 -61 108 0 10 -276 431 -291 444 -3 3 -26 34 -50 70 -24 36 -46 67 -49
70 -3 3 -46 57 -95 120 -90 115 -226 277 -320 380 -102 113 -424 428 -530 520
-60 52 -119 103 -130 113 -11 11 -47 40 -80 65 -33 26 -83 65 -110 87 -336
269 -916 623 -1295 789 -36 16 -92 41 -125 57 -220 102 -732 279 -995 345 -78
19 -373 85 -400 89 -20 3 -45 7 -55 9 -113 22 -198 37 -235 41 -25 3 -95 12
-155 20 -61 8 -142 17 -180 20 -39 3 -92 8 -120 10 -164 13 -677 28 -688 19z
m-161 -863 c0 -89 -2 -164 -5 -165 -3 -2 -35 -7 -71 -10 -36 -4 -76 -9 -90
-11 -14 -2 -61 -7 -105 -10 -44 -4 -82 -8 -85 -10 -3 -2 -27 -6 -55 -9 -53 -7
-233 -34 -275 -42 -101 -18 -382 -66 -410 -71 -19 -3 -36 -6 -36 -7 -1 0 20
-82 47 -181 53 -194 114 -424 161 -600 15 -60 35 -132 43 -159 9 -27 12 -53 8
-57 -5 -4 -71 -26 -148 -48 -77 -23 -156 -47 -175 -55 -19 -8 -78 -30 -130
-50 -411 -150 -882 -423 -1245 -721 -105 -86 -126 -104 -225 -198 -111 -105
-101 -100 -135 -69 -17 15 -61 56 -100 91 -100 92 -150 137 -235 216 -41 37
-95 87 -120 109 -25 23 -98 90 -162 148 l-117 108 -63 -67 c-35 -37 -73 -76
-84 -87 -83 -80 -344 -407 -499 -624 -59 -82 -91 -120 -99 -114 -6 5 -66 50
-133 101 l-123 91 66 98 c63 92 210 291 224 302 3 3 17 21 30 40 13 19 27 37
30 40 3 3 27 32 55 65 153 185 420 461 608 630 495 444 1132 838 1727 1069 52
21 104 41 115 47 121 56 727 232 876 254 24 4 46 8 49 10 3 2 25 6 50 10 25 4
47 8 50 10 12 7 273 45 415 60 33 4 70 8 82 10 13 2 69 7 125 10 57 4 104 8
106 10 1 1 15 1 30 0 l27 -1 1 -163z m819 155 c171 -14 211 -18 235 -21 14 -2
63 -9 110 -15 47 -7 94 -13 105 -15 22 -3 139 -23 170 -29 11 -2 36 -6 55 -10
105 -19 268 -55 345 -75 39 -11 106 -29 150 -41 219 -59 551 -178 790 -283
135 -60 471 -234 610 -317 301 -179 603 -397 845 -609 41 -36 90 -79 109 -96
19 -16 100 -95 180 -175 288 -287 520 -568 734 -889 l77 -115 -83 -46 c-45
-25 -112 -62 -149 -82 l-67 -37 -63 90 c-54 77 -214 293 -251 339 -20 25 -161
194 -172 206 -111 123 -210 224 -217 222 -5 -2 -170 -165 -367 -362 -274 -273
-362 -356 -374 -350 -8 5 -63 55 -123 111 -60 56 -127 116 -149 133 -37 29
-57 45 -149 121 -63 51 -273 197 -361 250 -49 30 -92 57 -95 60 -12 15 -327
177 -450 231 -208 92 -356 146 -611 223 l-86 25 43 160 c24 88 46 170 48 182
3 13 14 55 25 93 23 83 63 234 98 365 14 52 31 117 38 145 7 27 12 51 10 53
-3 3 -99 29 -135 37 -8 2 -46 11 -85 20 -84 20 -82 20 -220 45 -60 11 -119 22
-130 24 -20 4 -89 13 -155 20 -64 8 -234 19 -310 21 -41 2 -79 3 -85 4 -6 1
-10 73 -10 193 0 162 2 194 15 199 8 4 17 5 20 4 3 -2 41 -6 85 -9z m-195
-2301 c139 -13 176 -17 200 -21 14 -2 48 -7 75 -10 51 -6 355 -80 363 -89 3
-2 -1 -24 -7 -47 -6 -24 -22 -83 -36 -133 -19 -72 -107 -396 -156 -575 -5 -19
-12 -44 -14 -55 -3 -11 -45 -168 -95 -349 -50 -182 -92 -339 -95 -350 -2 -12
-8 -36 -14 -54 -7 -24 -7 -34 2 -37 7 -3 50 -15 97 -29 47 -13 97 -29 111 -34
15 -6 29 -9 32 -6 14 14 319 -154 392 -215 11 -10 41 -28 67 -41 26 -14 69
-44 95 -69 26 -24 58 -51 71 -59 23 -15 33 -6 603 564 318 318 583 578 588
577 16 -4 129 -126 219 -238 31 -38 60 -72 63 -75 26 -22 211 -297 284 -422
58 -100 196 -392 240 -508 50 -132 126 -372 120 -378 -3 -3 -112 -35 -240 -69
-11 -3 -128 -35 -260 -70 -234 -64 -289 -78 -545 -147 -296 -80 -545 -148
-547 -149 -1 -2 4 -16 11 -32 7 -17 21 -68 31 -115 24 -114 30 -714 9 -798
-22 -85 -22 -132 0 -132 14 0 320 -80 456 -119 36 -10 103 -29 150 -41 47 -13
123 -33 170 -46 47 -13 245 -66 440 -119 195 -53 357 -98 359 -100 4 -4 -65
-239 -79 -270 -5 -11 -23 -56 -39 -100 -148 -409 -428 -856 -744 -1190 l-67
-70 -582 583 -583 582 -100 -100 c-72 -73 -124 -114 -186 -150 -47 -27 -93
-58 -102 -68 -33 -37 -392 -185 -436 -180 -33 3 -81 -4 -76 -12 3 -5 8 -18 10
-27 4 -20 18 -72 105 -393 91 -333 185 -680 239 -885 29 -106 59 -216 70 -252
l9 -32 -56 -21 c-79 -30 -280 -87 -332 -95 -25 -4 -47 -8 -50 -10 -3 -2 -33
-7 -65 -10 -33 -4 -69 -9 -80 -11 -40 -9 -254 -18 -395 -18 -178 0 -350 11
-480 30 -25 3 -54 7 -65 8 -11 1 -33 5 -50 9 -16 4 -42 8 -56 11 -14 2 -70 16
-125 31 -54 15 -109 30 -121 32 -13 3 -23 10 -23 16 0 9 67 263 100 377 17 57
111 404 115 420 1 9 19 74 39 145 19 72 65 240 101 375 37 135 68 252 71 260
3 11 -3 16 -18 17 -12 1 -33 6 -47 12 -44 16 -155 49 -183 55 -41 7 -287 135
-348 181 -30 23 -87 60 -126 83 -65 37 -164 130 -164 153 0 5 -4 9 -8 9 -4 0
-268 -261 -587 -580 l-580 -581 -78 83 c-180 192 -395 485 -505 688 -91 170
-115 218 -160 320 -65 150 -150 387 -163 455 -1 6 -8 25 -16 43 -17 40 -12 49
30 57 17 3 53 13 78 21 25 8 54 16 65 19 10 2 44 11 74 19 59 16 426 115 905
245 165 44 329 89 365 99 77 21 79 26 54 126 -25 103 -26 692 -1 778 10 31 17
69 17 86 0 28 -4 31 -57 45 -105 27 -317 84 -393 105 -92 26 -418 114 -560
152 -58 16 -157 42 -220 60 -63 17 -122 33 -130 35 -219 58 -242 66 -237 78 2
7 16 53 31 102 79 264 261 677 367 832 16 23 29 44 29 46 0 5 63 104 77 122 5
6 30 42 58 80 81 116 212 274 312 378 l57 58 582 -582 583 -583 90 89 c49 49
102 96 119 104 79 42 187 106 210 125 15 12 65 39 112 61 47 21 137 63 200 92
63 30 127 57 143 60 22 4 26 10 21 25 -8 27 -110 403 -139 513 -13 50 -35 133
-50 185 -14 52 -28 102 -30 110 -2 8 -21 80 -43 160 -132 481 -163 601 -158
609 12 19 275 103 392 125 193 37 596 52 824 31z m5115 -1067 c241 -504 385
-934 491 -1468 9 -41 17 -86 19 -100 2 -14 8 -54 14 -90 6 -36 13 -87 16 -115
4 -27 8 -61 10 -75 3 -14 7 -56 11 -95 3 -38 7 -80 9 -92 25 -163 26 -934 0
-1094 -2 -13 -6 -53 -9 -89 -6 -56 -12 -105 -31 -250 -4 -28 -13 -82 -20 -120
-3 -14 -7 -38 -10 -55 -15 -94 -66 -319 -105 -465 -95 -354 -216 -677 -379
-1007 l-86 -173 -147 81 c-82 44 -148 85 -148 89 0 5 27 69 61 142 34 73 74
167 90 208 17 41 36 89 44 106 35 74 202 601 194 607 -4 3 -493 135 -528 142
-16 4 -193 51 -301 81 -30 9 -62 17 -70 19 -8 1 -34 8 -56 14 l-42 11 29 113
c25 100 58 257 74 357 3 19 10 58 15 85 5 28 12 73 15 100 3 28 7 66 10 85 27
194 27 688 1 877 -3 17 -7 60 -11 95 -3 35 -7 74 -9 88 -21 128 -28 173 -31
192 -3 25 -23 147 -30 188 -21 114 -27 152 -24 154 2 2 225 76 494 166 270 90
492 164 494 166 10 9 -84 311 -172 549 -34 91 -112 269 -177 401 -69 141 -78
164 -61 164 11 0 242 127 255 140 6 6 15 10 21 10 6 0 42 -64 80 -142z
m-10445 -59 c0 -4 -27 -68 -61 -141 -79 -172 -128 -295 -199 -498 -59 -170
-135 -419 -129 -424 2 -2 191 -65 419 -140 228 -76 422 -140 430 -143 8 -4 17
-7 20 -8 14 -3 116 -38 122 -41 3 -2 0 -25 -8 -51 -8 -27 -17 -61 -20 -78 -3
-16 -11 -57 -18 -90 -19 -83 -40 -217 -51 -330 -23 -225 -28 -327 -28 -550 -1
-184 6 -341 18 -440 2 -16 7 -59 11 -95 5 -36 9 -67 9 -70 1 -3 5 -27 10 -55
4 -27 9 -59 12 -70 2 -11 10 -57 18 -101 8 -45 30 -146 50 -224 19 -79 34
-145 32 -146 -2 -3 -596 -182 -642 -194 -82 -21 -341 -102 -347 -108 -3 -4 3
-36 13 -72 64 -212 91 -297 99 -315 5 -11 20 -54 34 -95 33 -98 131 -336 195
-475 l51 -110 -163 -81 c-114 -57 -166 -78 -174 -71 -7 5 -13 13 -13 17 0 5
-29 68 -64 142 -109 230 -260 622 -321 833 -13 44 -34 118 -48 165 -24 85 -64
237 -71 275 -2 11 -11 50 -20 88 -9 37 -18 82 -21 100 -3 17 -12 68 -20 112
-19 110 -43 277 -50 355 -3 36 -8 74 -10 85 -26 133 -26 851 -1 1050 2 17 7
64 11 105 3 41 8 82 10 90 2 8 6 38 10 65 3 28 7 61 10 75 2 14 7 43 10 65 14
101 72 392 96 479 6 22 12 46 14 55 10 48 99 341 130 430 71 202 173 446 258
616 73 146 80 159 89 171 6 8 51 -12 153 -68 80 -44 145 -84 145 -89z m427
-5754 c69 -102 224 -305 321 -420 99 -117 282 -315 291 -315 4 0 169 163 368
361 276 276 364 359 376 353 8 -5 50 -42 93 -83 193 -182 443 -372 701 -532
78 -49 144 -89 146 -89 3 0 58 -29 122 -65 65 -36 120 -65 121 -65 2 0 50 -22
107 -49 57 -27 143 -65 193 -85 49 -20 98 -41 109 -45 47 -21 138 -54 260 -95
l130 -43 -2 -34 c-1 -19 -4 -47 -7 -64 -4 -16 -22 -111 -41 -210 -19 -99 -42
-216 -50 -260 -9 -44 -17 -89 -19 -100 -2 -11 -16 -78 -30 -150 -14 -71 -29
-150 -33 -175 l-9 -45 136 -33 c74 -18 149 -35 165 -38 17 -3 62 -11 100 -19
39 -8 86 -17 105 -20 19 -3 46 -7 60 -10 47 -9 85 -14 140 -20 30 -3 75 -8
100 -10 38 -5 233 -14 306 -15 19 0 20 -5 19 -172 -1 -95 -2 -179 -3 -185 -1
-9 -13 -11 -34 -8 -18 2 -73 7 -123 10 -49 3 -108 8 -130 11 -108 11 -197 22
-245 29 -92 13 -185 28 -245 40 -38 8 -81 16 -95 18 -76 14 -192 40 -278 63
-53 14 -113 29 -132 34 -64 15 -113 31 -321 100 -1209 406 -2268 1212 -2973
2264 l-86 130 72 40 c40 21 107 59 148 82 l75 43 22 -27 c13 -15 44 -58 70
-97z m9570 -52 l43 -24 -66 -96 c-98 -144 -102 -150 -189 -260 -44 -56 -91
-116 -105 -134 -141 -186 -566 -619 -770 -785 -19 -16 -40 -33 -46 -39 -6 -5
-28 -23 -50 -40 -21 -16 -72 -57 -114 -90 -521 -413 -1228 -776 -1900 -974
-58 -17 -118 -35 -135 -40 -34 -11 -150 -41 -178 -47 -10 -2 -26 -5 -35 -8 -9
-3 -28 -7 -42 -10 -14 -2 -45 -9 -70 -15 -25 -5 -56 -12 -70 -14 -14 -3 -72
-14 -130 -25 -58 -11 -130 -23 -160 -27 -30 -3 -68 -9 -85 -11 -45 -8 -83 -13
-155 -19 -36 -4 -75 -8 -88 -10 -13 -2 -65 -7 -115 -10 -51 -3 -106 -8 -124
-10 -24 -4 -33 0 -36 13 -6 23 -3 309 3 315 3 3 39 8 80 12 41 3 93 8 115 10
22 2 72 7 110 10 39 4 82 8 96 11 14 2 52 6 85 9 32 3 102 13 154 21 52 8 113
18 135 21 22 3 99 18 170 35 72 16 138 31 148 33 26 6 38 15 32 26 -3 5 -13
35 -21 66 -8 32 -26 99 -39 148 -13 50 -43 160 -65 245 -23 85 -55 205 -71
265 -57 209 -66 250 -60 256 6 6 160 56 198 64 46 10 336 116 408 149 28 12
75 34 105 47 130 56 332 165 500 267 94 58 358 240 386 266 17 16 51 44 134
111 41 33 109 92 150 131 41 39 90 85 109 102 l35 31 45 -41 c25 -23 73 -67
107 -97 52 -49 226 -207 258 -236 34 -30 139 -126 191 -174 33 -31 84 -77 112
-104 l53 -47 67 71 c170 179 387 441 493 595 8 12 43 62 78 112 l63 90 107
-60 c59 -34 126 -72 149 -85z"/>
</g>
</svg>
